HIERARCHY
ROOT root
{
	OFFSET	0	13.1	24.9
	CHANNELS 6  Xposition Yposition Zposition Xrotation Yrotation Zrotation
	JOINT spine_1
	{
		OFFSET	0	9.99999	0
		CHANNELS 3  Xrotation Yrotation Zrotation
		JOINT spine_2
		{
			OFFSET	0	112	-10
			CHANNELS 3  Xrotation Yrotation Zrotation
			JOINT spine_3
			{
				OFFSET	0	206.5	19.3
				CHANNELS 3  Xrotation Yrotation Zrotation
				JOINT spine_4
				{
					OFFSET	0	110.4	14.6
					CHANNELS 3  Xrotation Yrotation Zrotation
					JOINT neck_1
					{
						OFFSET	0	71.8	-50.3
						CHANNELS 3  Xrotation Yrotation Zrotation
						JOINT neck_2
						{
							OFFSET	0	86.2	-25.8
							CHANNELS 3  Xrotation Yrotation Zrotation
							JOINT head_ee
							{
								OFFSET	0	179.8	-8.7
								CHANNELS 3  Xrotation Yrotation Zrotation
								End Site
								{
									OFFSET	1	0	0
								}
							}
						}
					}
					JOINT left_clavicle
					{
						OFFSET	-43.2	22.4	-70.8
						CHANNELS 3  Xrotation Yrotation Zrotation
						JOINT left_shoulder
						{
							OFFSET	-93.9	-5.79999	48.7
							CHANNELS 3  Xrotation Yrotation Zrotation
							JOINT left_elbow
							{
								OFFSET	-291.4	-30.8	15.2
								CHANNELS 3  Xrotation Yrotation Zrotation
								JOINT left_lowarm_twist
								{
									OFFSET	-110.7	-3.89999	13.6
									CHANNELS 3  Xrotation Yrotation Zrotation
									JOINT left_hand
									{
										OFFSET	-110.7	-3.89999	13.6
										CHANNELS 3  Xrotation Yrotation Zrotation
										JOINT left_ee
										{
											OFFSET	-80.8	-5.10001	12.1
											CHANNELS 3  Xrotation Yrotation Zrotation
											End Site
											{
												OFFSET	1	0	0
											}
										}
									}
								}
							}
						}
					}
					JOINT right_clavicle
					{
						OFFSET	43.2	22.4	-70.8
						CHANNELS 3  Xrotation Yrotation Zrotation
						JOINT right_shoulder
						{
							OFFSET	93.9	-5.79999	48.7
							CHANNELS 3  Xrotation Yrotation Zrotation
							JOINT right_elbow
							{
								OFFSET	291.4	-30.8	15.2
								CHANNELS 3  Xrotation Yrotation Zrotation
								JOINT right_lowarm_twist
								{
									OFFSET	110.7	-3.89999	13.6
									CHANNELS 3  Xrotation Yrotation Zrotation
									JOINT right_hand
									{
										OFFSET	110.7	-3.89999	13.6
										CHANNELS 3  Xrotation Yrotation Zrotation
										JOINT right_ee
										{
											OFFSET	80.8	-5.10001	12.1
											CHANNELS 3  Xrotation Yrotation Zrotation
											End Site
											{
												OFFSET	1	0	0
											}
										}
									}
								}
							}
						}
					}
				}
			}
		}
	}
	JOINT left_hip
	{
		OFFSET	-82.8	-127.5	0.300001
		CHANNELS 3  Xrotation Yrotation Zrotation
		JOINT left_knee
		{
			OFFSET	-28.2	-396.7	2.2
			CHANNELS 3  Xrotation Yrotation Zrotation
			JOINT left_ankle
			{
				OFFSET	-11.7	-411.3	35.4
				CHANNELS 3  Xrotation Yrotation Zrotation
				JOINT left_toes
				{
					OFFSET	0	-60	-88.6
					CHANNELS 3  Xrotation Yrotation Zrotation
					JOINT left_foot_ee
					{
						OFFSET	-22.5	-16.5	-42.2
						CHANNELS 3  Xrotation Yrotation Zrotation
						End Site
						{
							OFFSET	1	0	0
						}
					}
				}
			}
		}
	}
	JOINT right_hip
	{
		OFFSET	82.8	-127.5	0.300001
		CHANNELS 3  Xrotation Yrotation Zrotation
		JOINT right_knee
		{
			OFFSET	28.2	-396.7	2.2
			CHANNELS 3  Xrotation Yrotation Zrotation
			JOINT right_ankle
			{
				OFFSET	11.7	-411.3	35.4
				CHANNELS 3  Xrotation Yrotation Zrotation
				JOINT right_toes
				{
					OFFSET	0	-60	-88.6
					CHANNELS 3  Xrotation Yrotation Zrotation
					JOINT right_foot_ee
					{
						OFFSET	22.5	-16.5	-42.2
						CHANNELS 3  Xrotation Yrotation Zrotation
						End Site
						{
							OFFSET	1	0	0
						}
					}
				}
			}
		}
	}
}
MOTION
Frames: 9
Frame Time: 0.02
3206.61 720.394 -891.522 -39.775 60.6942 40.2932 4.80698 -0.25122 -1.93547 4.80906 -0.127576 -1.94752 4.81172 0.121654 -1.9479 4.80648 -0.187448 -1.94268 -12.9839 8.17463 0.768235 -13.1304 15.0705 3.19261 -0.0 0.0 -0.0 10.52 0.42403 20.7087 -27.904 -33.667 40.9948 1.4691 -36.043 0.477974 19.4011 0.270823 -2.4517 -0.587425 -5.75193 -6.41332 -0.0 0.0 -0.0 5.62742 -0.918572 -10.9062 -35.889 7.62157 -58.1153 0.529793 14.7055 -0.0683643 16.0917 -0.28368 2.02926 0.711802 -5.32013 -6.90908 0.0 0.0 0.0 4.10389 -16.1435 1.47727 -12.9279 0.312853 1.9551 40.9591 3.74646 -4.94068 -16.994 0.0 0.0 -0.0 0.0 -0.0 51.7088 16.7683 -4.55503 -2.75057 -0.103438 -0.40941 2.48252 -27.5551 0.382412 7.90493 -0.0 -0.0 0.0 0.0 0.0 
3187.66 718.501 -904.1 -40.1483 60.2097 40.3407 4.80848 -0.250641 -1.91589 4.81051 -0.128243 -1.92795 4.81319 0.118447 -1.92858 4.80804 -0.187564 -1.92309 -13.1978 7.93494 0.730323 -13.3411 14.6501 3.11057 -0.0 0.0 -0.0 10.4436 0.741991 20.531 -28.494 -32.9948 41.4769 1.44071 -35.5127 0.461373 19.1684 0.272525 -2.42202 -0.586794 -5.97325 -6.50456 -0.0 0.0 -0.0 5.72646 -0.54255 -11.0919 -35.8393 7.83222 -58.5541 0.516254 14.3454 -0.0649686 16.0136 -0.283689 2.01928 0.775676 -5.49562 -7.40088 0.0 0.0 0.0 3.75449 -16.2556 1.18467 -13.5591 0.316759 2.05188 40.6133 3.81164 -4.91132 -17.0509 0.0 0.0 -0.0 0.0 -0.0 51.1993 16.9521 -5.22497 -2.62259 -0.0990627 -0.390256 3.46709 -27.4636 0.532513 7.89158 -0.0 -0.0 0.0 0.0 0.0 
3162.26 720.609 -913.929 -37.6202 60.9401 37.4879 4.22155 -0.262157 -1.74383 4.22323 -0.150679 -1.75697 4.22678 0.0924245 -1.761 4.2225 -0.186808 -1.7535 -11.9306 7.88071 0.596917 -12.0428 14.5582 2.80225 -0.0 0.0 -0.0 10.3944 0.806391 20.4255 -28.4376 -32.677 42.289 1.41389 -35.0055 0.445893 18.5283 0.276583 -2.34036 -0.601211 -6.04683 -6.6342 -0.0 0.0 -0.0 5.92418 -0.924219 -11.4837 -35.5867 7.7261 -58.2243 0.5074 14.1093 -0.0627925 16.7173 -0.28312 2.10915 0.480429 -6.8643 -6.00053 0.0 0.0 0.0 2.11099 -16.3491 1.67524 -14.3198 0.320048 2.16854 40.5768 3.77864 -4.90827 -16.0968 0.0 0.0 -0.0 0.0 -0.0 50.4123 16.9541 -5.4445 -7.21544 -0.229136 -1.08292 1.36895 -27.4345 0.211264 8.20917 -0.0 -0.0 0.0 0.0 0.0 
3136.92 723.563 -929.939 -38.1509 61.6057 37.9588 4.09962 -0.553181 -1.72299 4.10116 -0.442439 -1.75469 4.11378 -0.193471 -1.79922 4.10958 -0.475153 -1.74612 -9.86977 8.00215 0.672395 -9.93441 14.6045 2.6461 -0.0 0.0 -0.0 10.1295 2.55188 19.7723 -29.2785 -32.0542 43.2127 1.42098 -35.1401 0.449964 18.962 0.273932 -2.3957 -0.593996 -5.96826 -6.5513 -0.0 0.0 -0.0 6.13431 -0.419985 -11.8877 -35.7929 7.39057 -57.9282 0.500141 13.9153 -0.0610349 16.4115 -0.283503 2.0701 0.595825 -5.65542 -6.277 0.0 0.0 0.0 3.23586 -14.6526 1.25907 -20.2728 0.292295 3.08109 40.2669 2.24476 -4.88614 -15.3258 0.0 0.0 -0.0 0.0 -0.0 49.2789 17.2428 -5.76272 -10.491 -0.287782 -1.58206 5.4149 -27.2289 0.826389 9.31394 -0.0 -0.0 0.0 0.0 0.0 
3112.35 722.601 -941.439 -37.8649 62.5153 37.7625 3.90187 -0.71792 -1.68998 3.90325 -0.608944 -1.73222 3.92093 -0.355503 -1.80137 3.91697 -0.635493 -1.72266 -7.47478 7.78833 -0.040726 -7.48387 14.5339 1.59939 -0.0 0.0 -0.0 9.81504 2.98981 19.1094 -30.3589 -31.3706 43.9338 1.40055 -34.7506 0.438262 18.7831 0.275076 -2.37288 -0.498389 -5.88739 -5.86777 -0.0 0.0 -0.0 6.25271 -0.972641 -12.1251 -35.5771 7.32351 -57.6076 0.514971 14.3112 -0.064651 16.6006 -0.283291 2.09426 0.647286 -5.62132 -6.60275 0.0 0.0 0.0 2.65421 -13.6795 1.12246 -23.1711 0.24452 3.5232 39.9514 1.08516 -4.86468 -14.1368 0.0 0.0 -0.0 0.0 -0.0 48.325 17.4784 -5.87575 -15.2677 -0.321978 -2.31395 6.52137 -27.2541 0.992444 10.1976 -0.0 -0.0 0.0 0.0 0.0 
3091.46 720.04 -951.769 -36.776 62.5688 36.4814 3.68772 -0.69676 -1.59565 3.68894 -0.593826 -1.63674 3.70535 -0.347733 -1.70604 3.70181 -0.612771 -1.62975 -6.0981 7.82498 0.0279449 -6.07667 14.4544 1.51025 -0.0 0.0 -0.0 9.79724 4.07771 19.0008 -30.9054 -30.9813 44.395 1.38645 -34.4797 0.430254 18.815 0.274878 -2.37695 -0.592368 -5.84967 -6.48907 -0.0 0.0 -0.0 6.60131 -0.63065 -12.806 -34.8363 7.49837 -57.421 0.523385 14.5352 -0.0667468 16.8458 -0.282897 2.12557 0.553954 -5.83259 -6.07189 0.0 0.0 0.0 3.23789 -12.8928 0.956749 -26.8682 0.151224 4.0828 40.2773 0.191402 -4.89831 -13.3716 0.0 0.0 -0.0 0.0 -0.0 47.7738 17.3098 -6.7019 -18.3682 -0.31149 -2.7895 7.67055 -27.6726 1.16658 10.9272 -0.0 -0.0 0.0 0.0 0.0 
3068.79 719.97 -963.21 -36.507 63.6564 36.3775 3.40134 -0.745269 -1.53918 3.40243 -0.645829 -1.58347 3.41991 -0.398713 -1.66296 3.41665 -0.656311 -1.57916 -5.20125 7.83332 0.131994 -5.16131 14.3236 1.51269 -0.0 0.0 -0.0 9.67877 4.94496 18.7044 -31.9522 -31.1748 44.9368 1.36506 -34.0652 0.418209 18.6951 0.275613 -2.36165 -0.542398 -5.58482 -6.03578 -0.0 0.0 -0.0 6.69225 -0.998459 -12.9854 -34.4572 7.58739 -57.2369 0.532967 14.7897 -0.0691722 17.0235 -0.282528 2.14826 0.580224 -5.79038 -6.22802 0.0 0.0 0.0 2.99693 -11.8333 0.821445 -29.5923 0.0594657 4.49077 39.7859 -0.287504 -4.85967 -12.8504 0.0 0.0 -0.0 0.0 -0.0 46.7895 17.0815 -7.1439 -21.5336 -0.274262 -3.27371 8.06473 -28.0342 1.22794 11.3314 -0.0 -0.0 0.0 0.0 0.0 
3044.27 720.178 -976.009 -35.8234 63.892 35.6286 3.13453 -0.595335 -1.64963 3.13591 -0.489174 -1.68416 3.1499 -0.220358 -1.73985 3.14601 -0.49233 -1.68324 -4.40227 7.72991 -0.292972 -4.34222 14.3908 0.969118 -0.0 0.0 -0.0 9.49573 5.43306 18.3103 -32.7185 -30.3752 45.8291 1.33073 -33.3914 0.399146 18.6842 0.275678 -2.36026 -0.529423 -5.63376 -5.96891 -0.0 0.0 -0.0 6.7623 -0.150704 -13.1216 -33.5271 7.84871 -57.0562 0.581779 16.0769 -0.0821626 17.1906 -0.282117 2.1696 0.572254 -5.7115 -6.14406 0.0 0.0 0.0 3.12989 -11.8788 0.612998 -30.8852 0.00914573 4.68279 40.005 -0.629907 -4.88129 -12.3945 0.0 0.0 -0.0 0.0 -0.0 45.9939 16.5277 -8.19993 -23.473 -0.238258 -3.56911 7.79211 -28.283 1.18925 11.4777 -0.0 -0.0 0.0 0.0 0.0 
3024.86 721.702 -985.917 -34.2641 63.7377 33.9688 3.1423 -0.429153 -1.64645 3.14375 -0.323531 -1.67041 3.15273 -0.0588984 -1.70042 3.14885 -0.326672 -1.6698 -3.82407 7.71773 -0.340907 -3.7514 14.3608 0.851498 -0.0 0.0 -0.0 9.29368 5.8895 17.885 -33.7084 -30.0721 46.7752 1.28254 -32.4277 0.372963 18.6456 0.275907 -2.35534 -0.495894 -5.42044 -5.64975 -0.0 0.0 -0.0 6.75801 0.259416 -13.1115 -32.5444 8.36217 -57.2198 0.619199 17.0526 -0.0928316 17.3034 -0.281804 2.18401 0.563952 -5.7185 -6.09216 0.0 0.0 0.0 3.26756 -11.6095 0.485242 -31.9342 -0.0348647 4.83775 39.7513 -0.870758 -4.86147 -12.1725 0.0 0.0 -0.0 0.0 -0.0 44.3479 16.2672 -8.90409 -24.9735 -0.20355 -3.79676 7.51586 -28.4282 1.14906 11.5248 -0.0 -0.0 0.0 0.0 0.0 
